Format : MPEG-4
Format profile : Base Media
Codec ID : isom
File size : 346 MiB
Duration : 22mn 0s
Overall bit rate mode : Variable
Overall bit rate : 2 199 Kbps
Encoded date : UTC 2012-08-02 10:54:27
Tagged date : UTC 2012-08-02 10:54:27

Video
ID : 2
Format : AVC
Format/Info : Advanced Video Codec
Format profile : Baseline@L3.0
Format settings, CABAC : No
Format settings, ReFrames : 1 frame
Muxing mode : Container profile=Baseline@1.3
Codec ID : avc1
Codec ID/Info : Advanced Video Coding
Duration : 22mn 0s
Bit rate : 2 076 Kbps
Maximum bit rate : 2 820 Kbps
Width : 720 pixels
Height : 480 pixels
Display aspect ratio : 3:2
Frame rate mode : Constant
Frame rate : 29.970 fps
Original frame rate : 29.000 fps
Standard : NTSC
Color space : YUV
Chroma subsampling : 4:2:0
Bit depth : 8 bits
Scan type : Progressive
Bits/(Pixel*Frame) : 0.200
Stream size : 327 MiB (94%)


Audio
ID : 1
Format : AAC
Format/Info : Advanced Audio Codec
Format profile : LC
Codec ID : 40
Duration : 21mn 59s
Bit rate mode : Variable
Bit rate : 118 Kbps
Maximum bit rate : 136 Kbps
Channel(s) : 2 channels
Channel positions : Front: L R
Sampling rate : 48.0 KHz
Compression mode : Lossy
Stream size : 19.0 MiB (5%)